<svg width="200" height="64" viewBox="0 0 200 64" fill="none" xmlns="http://www.w3.org/2000/svg">
<g clip-path="url(#clip0_91_196)">
<path d="M75.1896 58.3832L73.341 61.007H78.7597C79.1041 61.007 79.2766 61.4569 79.0331 61.7199L78.079 63.2597C78.0065 63.3381 77.9081 63.382 77.8056 63.382H70.2404C69.6316 63.382 69.1327 62.7031 69.479 62.2057L76.829 51.8503C76.923 51.7153 77.0777 51.6348 77.243 51.6348H84.5811C84.9215 51.6348 85.092 52.0135 84.8513 52.235L84.0675 53.5314C83.9958 53.5973 83.8987 53.6343 83.7973 53.6343H78.5024L76.7123 56.2457H80.3698C80.5994 56.2457 80.7144 56.6506 80.552 56.8873L79.552 58.2731C79.5037 58.3436 79.4381 58.3832 79.3698 58.3832H75.1896Z" fill="#8A8A8A"/>
<path d="M61.3022 52.3875C61.6668 51.8748 62.257 51.5703 62.8861 51.5703C63.9015 51.5703 64.7458 52.3521 64.8239 53.3645L65.3341 59.9866L70.9281 52.0845C71.1564 51.762 71.5269 51.5703 71.922 51.5703C72.9125 51.5703 73.4887 52.6897 72.9131 53.4958L66.4274 62.5789C66.0715 63.0774 65.4966 63.3732 64.8841 63.3732C63.8807 63.3732 63.051 62.5916 62.9911 61.59L62.5805 54.7184L56.8473 62.8566C56.6191 63.1805 56.2476 63.3732 55.8513 63.3732C54.8615 63.3732 54.2848 62.2555 54.8584 61.4488L61.3022 52.3875Z" fill="#8A8A8A"/>
<path d="M106.197 52.3582C106.549 51.8638 107.118 51.5703 107.725 51.5703H115.08C115.339 51.5703 115.49 51.8638 115.338 52.0743L114.285 53.5377C114.225 53.6208 114.129 53.67 114.027 53.67H108.19L106.52 56.0277C106.445 56.1331 106.52 56.2787 106.649 56.2787H110.051C111.342 56.2787 112.095 57.7352 111.349 58.7887L107.847 62.9704C107.668 63.223 107.378 63.3732 107.068 63.3732H99.389C99.1286 63.3732 98.9785 63.0774 99.1323 62.8672L100.274 61.3083C100.334 61.2264 100.429 61.1781 100.53 61.1781H105.798C106.002 61.1781 106.194 61.08 106.314 60.9144L108.573 58.5352C108.649 58.43 108.574 58.283 108.444 58.283H103.827C103.052 58.283 102.6 57.4066 103.05 56.7748L106.197 52.3582Z" fill="#8A8A8A"/>
<path d="M86.4035 51.8513C86.4223 51.6911 86.5581 51.5703 86.7194 51.5703H88.7956C88.9834 51.5703 89.1304 51.7322 89.1122 51.9192L87.9717 59.4053C87.9653 59.4714 88.0518 59.5019 88.0882 59.4463L93.434 51.5833H95.2977C95.6797 51.5833 95.9756 51.9176 95.9293 52.2967L94.9012 59.412C94.8932 59.4776 94.9781 59.5104 95.0163 59.4565L100.665 51.7046C100.725 51.6204 100.822 51.5703 100.925 51.5703H103.015C103.273 51.5703 103.423 51.8612 103.275 52.0719L94.66 63.2386C94.6004 63.323 94.5034 63.3732 94.4001 63.3732H91.6747C91.4843 63.3732 91.3365 63.2071 91.3587 63.018L92.8151 56.8506C92.8228 56.7848 92.7372 56.7525 92.6995 56.8071L87.5335 63.2357C87.4741 63.3218 87.3762 63.3732 87.2716 63.3732H84.453C84.2626 63.3732 84.1148 63.2071 84.137 63.018L86.4035 51.8513Z" fill="#8A8A8A"/>
<path d="M185.734 28.534C193.613 28.534 200.001 22.1464 200.001 14.267C200.001 6.38755 193.613 0 185.734 0C177.854 0 171.467 6.38755 171.467 14.267C171.467 22.1464 177.854 28.534 185.734 28.534Z" fill="#0072FC"/>
<path d="M105.328 31.3361L100.258 38.5327H115.121C116.066 38.5327 116.539 39.7667 115.871 40.4882L112.992 44.7117C112.793 44.9264 112.523 45.047 112.242 45.047H91.7539C90.0841 45.047 88.7158 43.1848 89.6656 41.8207L109.825 13.4175C110.083 13.0472 110.507 12.8262 110.961 12.8262H131.524C132.458 12.8262 132.926 13.8651 132.265 14.4726L129.767 18.0283C129.57 18.2091 129.303 18.3106 129.025 18.3106H114.415L109.505 25.4732H119.537C120.167 25.4732 120.482 26.5838 120.037 27.2331L117.294 31.0342C117.161 31.2275 116.982 31.3361 116.794 31.3361H105.328Z" fill="black"/>
<path d="M72.4857 31.4892C72.5279 31.6911 72.706 31.8358 72.9122 31.8358L66.0899 41.6351C65.1402 42.9992 66.1231 44.8614 67.793 44.8614H71.0312C71.7164 44.8614 72.3573 44.5248 72.7429 43.9622L80.7287 32.3125L100.081 15.1679C100.081 15.1679 100.175 12.6406 99.0752 12.6406H93.2221C92.819 12.6406 92.4386 12.8625 92.1921 13.2411L78.8062 25.0949L76.3052 12.5556C76.0587 12.177 75.6784 11.9551 75.2753 11.9551H69.4222C68.3227 11.9551 68.7618 13.669 68.7618 13.669L72.4857 31.4892Z" fill="black"/>
<path d="M19.2499 12.6406C18.8466 12.6406 18.4659 12.8263 18.2193 13.1433L1.435 36.8489C-1.61961 39.8557 0.525644 45.0266 4.82777 45.0266H20.4579C21.1413 45.0266 21.7806 44.6918 22.1666 44.1317L23.4125 42.3242C24.3532 40.9593 23.4564 38.7567 21.791 38.7567H9.07935C8.52923 38.7567 8.22695 38.1212 8.57633 37.6992L25.2405 14.7558C25.9393 13.9117 25.3347 12.6406 24.2345 12.6406H19.2499Z" fill="black"/>
<path d="M142.219 12.6406C141.766 12.6406 141.341 12.8616 141.084 13.2319L121.309 41.6351C120.359 42.9992 121.342 44.8614 123.012 44.8614H126.25C126.935 44.8614 127.576 44.5248 127.962 43.9622L145.397 18.5281H147.017V18.5476H157.196C157.711 18.5476 157.969 19.16 157.606 19.5195L151.816 27.0372H142.531C141.387 27.0372 140.46 27.958 140.46 29.0938V32.0769C140.46 32.5216 140.362 32.9283 140.644 33.3199L148.284 43.9149C148.688 44.5071 149.36 44.8614 150.078 44.8614H153.471C155.221 44.8614 156.252 42.9011 155.256 41.4652L148.623 32.3733H153.574H154.181C155.31 32.3733 156.394 31.9338 157.196 31.1505C157.196 31.1505 161.167 25.6661 165.548 19.1158C167.38 16.9311 167.284 12.6407 163.186 12.6407L142.219 12.6406Z" fill="black"/>
<path fill-rule="evenodd" clip-rule="evenodd" d="M52.4617 38.0059L53.2268 43.1078C53.3779 44.1155 54.2491 44.8614 55.2749 44.8614H59.2798C60.5756 44.8614 61.553 43.6927 61.3153 42.4276L56.0352 14.3201C55.9019 13.6106 55.4105 12.6406 54.7694 12.6406H47.6563C47.203 12.6406 46.7786 12.8616 46.5208 13.2319L26.7461 41.6351C25.7964 42.9992 26.7794 44.8614 28.4493 44.8614H31.6874C32.3726 44.8614 33.0134 44.5248 33.3991 43.9622L37.4821 38.0059H52.4617ZM41.2417 32.5216L49.7731 20.0762L51.6393 32.5216H41.2417Z" fill="black"/>
<path fill-rule="evenodd" clip-rule="evenodd" d="M186.262 7.84936H181.957C181.42 7.84936 180.985 7.41467 180.985 6.87845V5.42208C180.985 4.88586 181.42 4.45117 181.957 4.45117H190.965C192.265 4.45117 192.916 6.02135 191.996 6.93838L187.523 11.3945C188.216 11.6036 188.877 11.8932 189.482 12.2617C191.232 13.3293 192.583 15.1314 192.583 17.5339C192.583 23.1125 184.998 26.8443 179.267 21.7874C178.864 21.4323 178.879 20.8117 179.267 20.4409L180.32 19.4336C180.708 19.0628 181.321 19.0835 181.732 19.4281C185.562 22.6345 189.179 19.5745 189.179 17.5339C189.179 16.5556 188.669 15.7485 187.707 15.1616C186.711 14.5544 185.325 14.2643 183.966 14.4385L183.258 14.5294C181.877 14.7066 181.056 13.0359 182.042 12.054L186.262 7.84936Z" fill="black"/>
</g>
<defs>
<clipPath id="clip0_91_196">
<rect width="200" height="64" fill="white"/>
</clipPath>
</defs>
</svg>
